<?xml version="1.0" ?><!DOCTYPE svg  PUBLIC '-//W3C//DTD SVG 1.1//EN'  'http://www.w3.org/Graphics/SVG/1.1/DTD/svg11.dtd'><svg enable-background="new 0 0 128 128" id="Слой_1" version="1.1" viewBox="0 0 128 128" xml:space="preserve" xmlns="http://www.w3.org/2000/svg" xmlns:xlink="http://www.w3.org/1999/xlink"><g><path d="M17,2v124h94V23.2L89.8,2H17z M91,8.8L104.2,22H91V8.8z M21,122V6h66v20h20v96H21z" fill="#3EBBC4"/><rect fill="#3EBBC4" height="4" width="70" x="29" y="77"/><rect fill="#3EBBC4" height="4" width="70" x="29" y="87"/><rect fill="#3EBBC4" height="4" width="25" x="74" y="97"/><path d="M47,45.8V68h34V45.8l1.6,1.6l2.8-2.8L81,40.2V27.3h-9v3.8l-8-8L42.6,44.6l2.8,2.8L47,45.8z M76,40.8v-9.5h1   v10.1v0.4V64H51V41.8l13-13L76,40.8z" fill="#3EBBC4"/></g></svg>